<?xml version="1.0" encoding="UTF-8"?>
<svg xmlns="http://www.w3.org/2000/svg" xmlns:xlink="http://www.w3.org/1999/xlink" width="24px" height="24px" viewBox="0 0 24 24" version="1.1">
<defs>
<clipPath id="clip1">
  <path d="M 0.382812 0 L 23.300781 0 L 23.300781 22.917969 L 0.382812 22.917969 Z M 0.382812 0 "/>
</clipPath>
</defs>
<g id="surface1">
<g clip-path="url(#clip1)" clip-rule="nonzero">
<path style=" stroke:none;fill-rule:nonzero;fill:rgb(100%,100%,100%);fill-opacity:1;" d="M 0.382812 0 L 23.300781 0 L 23.300781 28.648438 L 0.382812 28.648438 Z M 0.382812 0 "/>
<path style=" stroke:none;fill-rule:nonzero;fill:rgb(100%,100%,100%);fill-opacity:1;" d="M 0.382812 0 L 23.300781 0 L 23.300781 22.917969 L 0.382812 22.917969 Z M 0.382812 0 "/>
<path style=" stroke:none;fill-rule:nonzero;fill:rgb(100%,34.117647%,34.117647%);fill-opacity:1;" d="M 0.382812 0 L 23.300781 0 L 23.300781 22.917969 L 0.382812 22.917969 Z M 0.382812 0 "/>
</g>
<path style=" stroke:none;fill-rule:nonzero;fill:rgb(100%,100%,100%);fill-opacity:1;" d="M 17.164062 17.113281 L 13.683594 17.113281 L 13.683594 11.882812 L 9.664062 11.882812 L 9.664062 17.113281 L 6.171875 17.113281 L 6.171875 4.296875 L 9.664062 4.296875 L 9.664062 9.046875 L 13.683594 9.046875 L 13.683594 4.296875 L 17.164062 4.296875 Z M 17.164062 17.113281 "/>
</g>
</svg>
